<svg xmlns="http://www.w3.org/2000/svg" viewBox="0 0 48 48" fill="none">
  <path d="M24 4C12.95 4 4 12.95 4 24C4 35.05 12.95 44 24 44C35.05 44 44 35.05 44 24C44 12.95 35.05 4 24 4Z" fill="#25D366"/>
  <path d="M34.5 24.5C34.5 30.3 29.8 35 24 35C18.2 35 13.5 30.3 13.5 24.5C13.5 18.7 18.2 14 24 14C29.8 14 34.5 18.7 34.5 24.5Z" fill="white"/>
  <path d="M22.5 18.5V25.5L27.5 28.5" stroke="#25D366" stroke-width="2" stroke-linecap="round"/>
  <path d="M18 14.5L20 16.5M30 14.5L28 16.5M14.5 24H17M31 24H33.5M18 34.5L20 32.5M30 34.5L28 32.5" stroke="white" stroke-width="1.5" stroke-linecap="round"/>
</svg>
